<?xml version="1.0" encoding="utf-8"?>
<!-- Generator: Adobe Illustrator 23.0.5, SVG Export Plug-In . SVG Version: 6.00 Build 0)  -->
<svg version="1.1" id="Layer_1" xmlns="http://www.w3.org/2000/svg" xmlns:xlink="http://www.w3.org/1999/xlink" x="0px" y="0px"
	 viewBox="0 0 40 30" style="enable-background:new 0 0 40 30;" xml:space="preserve">
<style type="text/css">
	.st0{fill:#8EC73F;}
</style>
<g>
	<g>
		<g>
			<path class="st0" d="M15.6,7.3l2.6-4.8c0.3-0.6,0.1-1.4-0.5-1.7c-0.6-0.3-1.4-0.1-1.7,0.5l-3.2,6H15.6z"/>
		</g>
		<g>
			<path class="st0" d="M24.4,7.3h2.9l-3.2-6c-0.3-0.6-1.1-0.9-1.7-0.5c-0.6,0.3-0.9,1.1-0.5,1.7L24.4,7.3z"/>
		</g>
	</g>
	<path class="st0" d="M35.3,9.3C25.9,12.4,20.1,26,20.1,26c-4.7-9-9.9-9.7-9.9-9.7c4.6-2.2,10.3,1.3,10.3,1.3
		c4.7-6.3,10.3-8.3,14-8.8c-0.5-0.2-1-0.3-1.6-0.3H7.2c-2.8,0-4.7,2.6-4,5.3l3.6,12.7c0.5,1.8,2.1,3,4,3h18.5c1.9,0,3.5-1.2,4-3
		l3.6-12.7C37.3,12,36.6,10.3,35.3,9.3z"/>
</g>
</svg>
